<svg xmlns="http://www.w3.org/2000/svg" aria-hidden="true" style="position:absolute;width:0;height:0;overflow:hidden">
  <defs>
    <symbol id="icon-instagram" viewBox="0 0 32 32">
      <path d="M15.588 26.88h-.23l-.34.001a80.67 80.67 0 0 1-4.983-.153l.226.011c-1.489-.09-2.847-.604-3.928-1.486-1.043-.851-1.756-2.002-2.118-3.42-.315-1.235-.333-2.447-.348-3.62-.012-.841-.023-1.837-.026-2.851.003-1.019.014-2.015.026-2.856.017-1.172.033-2.385.348-3.62.362-1.418 1.075-2.569 2.118-3.42 1.082-.882 2.44-1.395 3.928-1.486a77.595 77.595 0 0 1 5.121-.141h-.018l.324-.001a81.2 81.2 0 0 1 5 .153l-.227-.011c1.489.09 2.847.604 3.928 1.486 1.044.851 1.756 2.002 2.118 3.42.315 1.235.333 2.447.348 3.62.012.841.023 1.837.026 2.851v.005a256.1 256.1 0 0 1-.026 2.851c-.017 1.172-.033 2.385-.348 3.62-.362 1.418-1.075 2.569-2.118 3.42-1.082.882-2.44 1.395-3.928 1.486-1.554.095-3.15.141-4.872.141zm-.231-1.801.341.001c1.636 0 3.261-.05 4.872-.149l-.221.011c1.126-.068 2.102-.433 2.9-1.084.739-.602 1.248-1.434 1.512-2.47.262-1.028.278-2.131.293-3.199.01-.836.023-1.825.026-2.829a279.004 279.004 0 0 0-.026-2.829c-.015-1.068-.031-2.171-.293-3.199-.264-1.037-.773-1.869-1.51-2.47-.8-.652-1.775-1.016-2.9-1.085a75.673 75.673 0 0 0-4.652-.138l-.355.001h.018l-.346-.001c-1.634 0-3.257.05-4.867.149l.221-.011c-1.126.069-2.102.435-2.9 1.085-.739.602-1.248 1.434-1.512 2.47-.262 1.028-.278 2.131-.293 3.199-.01.836-.023 1.827-.026 2.831.003 1 .015 1.99.026 2.826.015 1.068.031 2.171.293 3.199.264 1.037.773 1.869 1.51 2.47.8.652 1.775 1.016 2.9 1.084 1.585.097 3.217.141 4.988.137zm-.042-4.093a5.633 5.633 0 0 1-5.626-5.625 5.633 5.633 0 0 1 5.625-5.626 5.633 5.633 0 0 1 5.626 5.625 5.633 5.633 0 0 1-5.625 5.626zm0-9.451a3.83 3.83 0 0 0-3.826 3.824 3.83 3.83 0 0 0 3.826 3.825 3.83 3.83 0 0 0 3.825-3.824 3.83 3.83 0 0 0-3.824-3.825zm6.256-3.6a1.35 1.35 0 0 0 0 2.7 1.35 1.35 0 0 0 0-2.7z"/>
    </symbol>
    <symbol id="icon-down" viewBox="0 0 32 32">
      <path d="M29.246 7.664 16.003 20.912 2.757 7.662A1.616 1.616 0 1 0 .471 9.948L14.86 24.339c.292.292.695.473 1.141.473s.849-.181 1.141-.473L31.528 9.948a1.615 1.615 0 1 0-2.282-2.286z"/>
    </symbol>
    <symbol id="icon-sort-ascending" viewBox="0 0 32 32">
      <path fill="#df4e3c" d="M10.666 0 3.555 7.094h5.334v12.46h3.557V7.094h5.332L10.667 0z" style="fill:var(--color1, #df4e3c)"/>
      <path fill="#8d8d8d" d="M23.111 24.906v-12.46h-3.554v12.46H14.22L21.334 32l7.111-7.094h-5.334z" style="fill:var(--color2, #8d8d8d)"/>
    </symbol>
    <symbol id="icon-sort-descending" viewBox="0 0 32 32">
      <path fill="#8d8d8d" d="M10.666 0 3.555 7.094h5.334v12.46h3.557V7.094h5.332L10.667 0z" style="fill:var(--color2, #8d8d8d)"/>
      <path fill="#df4e3c" d="M23.111 24.906v-12.46h-3.554v12.46H14.22L21.334 32l7.111-7.094h-5.334z" style="fill:var(--color1, #df4e3c)"/>
    </symbol>
    <symbol id="icon-plus" viewBox="0 0 32 32">
      <path d="M21.444 14.111h-4.888V9.223a1.223 1.223 0 1 0-2.446 0v4.888H9.222a1.223 1.223 0 1 0 0 2.446h4.888v4.888a1.223 1.223 0 1 0 2.446 0v-4.888h4.888a1.223 1.223 0 1 0 0-2.446z"/>
    </symbol>
    <symbol id="icon-minus" viewBox="0 0 32 32">
      <path d="M16.556 14.667h4.888c.676 0 1.223.597 1.223 1.333s-.547 1.333-1.223 1.333H9.223C8.547 17.333 8 16.736 8 16s.547-1.333 1.223-1.333h7.333z"/>
    </symbol>
    <symbol id="icon-facebook" viewBox="0 0 32 32">
      <path d="M21.968 5.314h2.923V.226A36.515 36.515 0 0 0 20.768 0h-.14.007c-4.213 0-7.097 2.649-7.097 7.52V12H8.889v5.689h4.647V32h5.7V17.689h4.46L24.404 12h-5.17V8.084c.002-1.643.444-2.768 2.734-2.768z"/>
    </symbol>
  </defs>
</svg>
